# xmcd
#
# Track frame offsets:
#  150
#  20299
#  38700
#  55501
#  73813
#  91473
#  118980
#
# Disc length: 1814 seconds
#
# Revision: 0
# Processed by: cddbd v1.5.2PL0 Copyright (c) Steve Scherf et al.
# Submitted via: AltoMP3_Maker 3.0
#
DISCID=58071407
DTITLE=The Remains - Burnin Daylight
DYEAR=1900
DGENRE=
TTITLE0=Is it ever gonna rain
TTITLE1=All them people
TTITLE2=The Letterbomb
TTITLE3=Sin City
TTITLE4=I wanna get
TTITLE5=Aint going back
TTITLE6=Burnin Day light
EXTD=
EXTT0=
EXTT1=
EXTT2=
EXTT3=
EXTT4=
EXTT5=
EXTT6=
PLAYORDER=
